<svg aria-hidden="true" style="position:absolute;width:0;height:0;overflow:hidden" xmlns="http://www.w3.org/2000/svg">
  <defs>
    <symbol id="icon-arrow" viewBox="0 0 44 32">
      <path d="M0 16c0-.429.164-.84.456-1.143s.689-.473 1.102-.473h36.755L28.505 4.217c-.293-.303-.457-.715-.457-1.144s.164-.841.457-1.144c.293-.303.69-.474 1.103-.474s.811.17 1.103.474l12.467 12.927a1.662 1.662 0 0 1 0 2.288L30.711 30.071c-.293.303-.689.474-1.103.474s-.811-.17-1.103-.474-.457-.715-.457-1.144c0-.429.164-.841.457-1.144l9.808-10.167H1.558c-.413 0-.81-.17-1.102-.473S0 16.429 0 16z"/>
    </symbol>
    <symbol id="icon-dot" viewBox="0 0 32 32">
      <path fill="#edb32d" style="fill:var(--color1, #edb32d)" d="M32 16c0 8.837-7.163 16-16 16S0 24.837 0 16 7.163 0 16 0s16 7.163 16 16z"/>
    </symbol>
    <symbol id="icon-star" viewBox="0 0 32 32">
      <path fill="#f0e714" style="fill:var(--color2, #f0e714)" d="M14.941.98c.364-.983 1.755-.983 2.118 0l3.59 9.703c.114.309.358.553.667.667l9.703 3.59c.983.364.983 1.755 0 2.118l-9.703 3.59a1.127 1.127 0 0 0-.667.667l-3.59 9.703c-.364.983-1.755.983-2.118 0l-3.59-9.703a1.127 1.127 0 0 0-.667-.667l-9.703-3.59c-.983-.364-.983-1.755 0-2.118l9.703-3.59c.309-.114.553-.358.667-.667L14.941.98z"/>
    </symbol>
    <symbol id="icon-play" viewBox="0 0 32 32">
      <path fill="#fff" style="fill:var(--color3, #fff)" d="M16 0c8.837 0 16 7.163 16 16s-7.163 16-16 16S0 24.837 0 16 7.163 0 16 0z"/>
      <path fill="#2b303b" style="fill:var(--color4, #2b303b)" d="M21.067 14.614a1.6 1.6 0 0 1 0 2.771l-6.4 3.695a1.6 1.6 0 0 1-2.4-1.386v-7.39a1.6 1.6 0 0 1 2.4-1.386l6.4 3.695z"/>
    </symbol>
    <symbol id="icon-choose-1" viewBox="0 0 32 32">
      <path d="M11.5 11.333h-6a1.335 1.335 0 0 1-1.334-1.334v-6a1.335 1.335 0 0 1 2.277-.943c.25.251.391.589.391.943v4.667h4.667a1.335 1.335 0 0 1 .943 2.277c-.251.25-.589.391-.943.391z"/>
      <path d="M28 17.333A1.333 1.333 0 0 1 26.667 16a10.665 10.665 0 0 0-7.9-10.301 10.66 10.66 0 0 0-11.993 4.969 1.333 1.333 0 0 1-2.308-1.336 13.325 13.325 0 0 1 24.867 6.669A1.333 1.333 0 0 1 28 17.334zm-1.5 12A1.333 1.333 0 0 1 25.167 28v-4.667H20.5a1.333 1.333 0 1 1 0-2.667h6A1.33 1.33 0 0 1 27.833 22v6a1.333 1.333 0 0 1-1.333 1.333z"/>
      <path d="M16 29.333A13.353 13.353 0 0 1 2.667 15.999a1.33 1.33 0 0 1 1.334-1.333 1.333 1.333 0 0 1 1.334 1.333 10.665 10.665 0 0 0 7.9 10.301 10.66 10.66 0 0 0 11.993-4.969 1.342 1.342 0 0 1 1.329-.655 1.351 1.351 0 0 1 .883.511 1.342 1.342 0 0 1 .264.986c-.022.173-.08.341-.168.492a13.365 13.365 0 0 1-11.534 6.665z"/>
    </symbol>
    <symbol id="icon-choose-2" viewBox="0 0 32 32">
      <path d="M25.756 21.872a9.399 9.399 0 0 0-2.7-1.887 6.236 6.236 0 0 0 2.319-4.859c0-3.463-2.887-6.303-6.35-6.25a6.253 6.253 0 0 0-6.156 6.25c0 1.962.906 3.712 2.319 4.859a9.399 9.399 0 0 0-2.7 1.887 9.313 9.313 0 0 0-2.737 6.372.253.253 0 0 0 .071.181.255.255 0 0 0 .179.076h1.75a.249.249 0 0 0 .25-.241 7.064 7.064 0 0 1 2.084-4.797 7.09 7.09 0 0 1 5.04-2.088c1.903 0 3.694.741 5.041 2.087a7.087 7.087 0 0 1 2.084 4.797.25.25 0 0 0 .25.241h1.75a.251.251 0 0 0 .25-.257 9.295 9.295 0 0 0-2.744-6.372zm-6.631-2.747a3.966 3.966 0 0 1-2.828-1.172 3.957 3.957 0 0 1-1.172-2.869 4.006 4.006 0 0 1 1.134-2.75 3.98 3.98 0 0 1 2.825-1.209 4.026 4.026 0 0 1 2.844 1.144 3.97 3.97 0 0 1 1.2 2.856 3.971 3.971 0 0 1-1.172 2.828 3.97 3.97 0 0 1-2.831 1.171zm-7.828-3.175a7.997 7.997 0 0 1 .09-2.278.25.25 0 0 0-.141-.275 3.952 3.952 0 0 1-1.153-.784 3.984 3.984 0 0 1-1.21-2.981 3.98 3.98 0 0 1 1.134-2.675 3.974 3.974 0 0 1 2.912-1.209 3.997 3.997 0 0 1 3.325 1.838.249.249 0 0 0 .291.1 7.759 7.759 0 0 1 1.728-.388.25.25 0 0 0 .197-.362 6.261 6.261 0 0 0-5.491-3.434C9.513 3.449 6.626 6.29 6.626 9.749c0 1.963.903 3.713 2.319 4.859a9.4 9.4 0 0 0-2.703 1.887 9.295 9.295 0 0 0-2.744 6.375.253.253 0 0 0 .071.181.255.255 0 0 0 .179.076h1.753a.249.249 0 0 0 .25-.241 7.064 7.064 0 0 1 2.084-4.797 7.061 7.061 0 0 1 3.272-1.866.25.25 0 0 0 .188-.272z"/>
    </symbol>
    <symbol id="icon-choose-3" viewBox="0 0 32 32">
      <path d="M16 2.667C8.648 2.667 2.667 8.648 2.667 16v5.524C2.667 22.889 3.863 24 5.334 24h1.333a1.333 1.333 0 0 0 1.334-1.333V15.81a1.335 1.335 0 0 0-1.334-1.334H5.456C6.197 9.316 10.637 5.333 16 5.333s9.803 3.983 10.544 9.143h-1.211A1.33 1.33 0 0 0 24 15.81v8.191a2.67 2.67 0 0 1-2.667 2.667h-2.667v-1.333h-5.333v4h8a5.339 5.339 0 0 0 5.333-5.333c1.471 0 2.667-1.111 2.667-2.476v-5.524C29.333 8.65 23.352 2.669 16 2.669z"/>
    </symbol>
    <symbol id="icon-services-1" viewBox="0 0 32 32">
      <path fill="#24272e" style="fill:var(--color1, #24272e)" d="M16 0c8.837 0 16 7.163 16 16s-7.163 16-16 16S0 24.837 0 16 7.163 0 16 0z"/>
      <path fill="#f0e714" style="fill:var(--color2, #f0e714)" d="M15.745 6.087c-.082.018-.197.053-.255.077s-1.829 1.014-3.935 2.199c-2.688 1.513-3.882 2.207-4.007 2.329a1.552 1.552 0 0 0-.277.392l-.098.217v9.062l.115.234c.063.129.188.305.277.392.102.1 1.579.955 4.025 2.331 2.95 1.66 3.928 2.191 4.137 2.245.485.127.394.171 4.667-2.233 2.307-1.298 3.91-2.225 4.018-2.324a1.64 1.64 0 0 0 .298-.405l.118-.24v-9.062l-.1-.222a1.516 1.516 0 0 0-.298-.405c-.136-.126-1.399-.858-4.026-2.333a402.166 402.166 0 0 0-3.939-2.196c-.156-.066-.543-.097-.719-.057zm3.608 3.22c1.818 1.021 3.328 1.878 3.355 1.904.037.035-.786.522-3.248 1.919-1.814 1.03-3.325 1.878-3.359 1.886-.073.017-6.829-3.74-6.813-3.788.015-.045 6.634-3.772 6.704-3.775.031-.002 1.543.833 3.361 1.854zm-7.118 5.162c1.731.965 3.151 1.757 3.154 1.76.017.017-.067 7.569-.084 7.586-.011.011-1.544-.838-3.406-1.885l-3.387-1.905V12.39l.287.162 3.435 1.917zm11.253 1.759v3.8l-3.386 1.905c-1.862 1.048-3.392 1.898-3.401 1.89-.026-.026.055-7.569.081-7.595.039-.039 6.638-3.792 6.674-3.795.018-.002.032 1.707.032 3.797z"/>
    </symbol>
    <symbol id="icon-services-2" viewBox="0 0 32 32">
      <path fill="#24272e" style="fill:var(--color1, #24272e)" d="M16 0c8.837 0 16 7.163 16 16s-7.163 16-16 16S0 24.837 0 16 7.163 0 16 0z"/>
      <path fill="#f0e714" style="fill:var(--color2, #f0e714)" d="M15.088 7.219c-3.516.366-6.529 2.858-7.539 6.237-1.594 5.331 2.057 10.778 7.597 11.335 2.902.292 5.829-.925 7.685-3.196a8.824 8.824 0 0 0 0-11.184 8.88 8.88 0 0 0-7.742-3.193zm1.343 1.655c.695.354 1.39 1.574 1.803 3.16.079.304.144.557.144.563s-1.07.011-2.378.011h-2.379l.026-.117c.242-1.081.664-2.157 1.094-2.792.568-.838 1.128-1.112 1.69-.825zm-3.028.404c-.407.692-.714 1.493-.991 2.585l-.183.722-2.89.022.139-.245a7.574 7.574 0 0 1 3.2-3.044c.297-.15.819-.376.933-.405a7.037 7.037 0 0 1-.207.363zm5.784-.036c1.135.515 2.303 1.529 3.044 2.643.196.295.393.645.393.699 0 .013-.65.023-1.444.023-1.363 0-1.444-.004-1.444-.077 0-.042-.066-.343-.146-.669-.246-1-.595-1.906-.992-2.582l-.214-.364.262.1c.144.055.387.157.54.226zm-7.192 5.032c-.052.4-.052 3.061 0 3.461l.04.308H8.822l-.041-.109c-.184-.485-.298-1.899-.214-2.672.048-.449.185-1.169.238-1.254.015-.025.646-.041 1.628-.041h1.603l-.04.308zm6.615-.213c.043.197.108 1.365.108 1.95s-.058 1.606-.107 1.892l-.024.138h-5.175l-.021-.096c-.044-.198-.108-1.366-.108-1.95 0-.598.064-1.748.107-1.935l.022-.095h5.177l.021.095zm4.641.138c.158.633.197.991.197 1.805s-.039 1.172-.197 1.805l-.053.212-3.232.022.04-.308c.052-.4.052-3.061 0-3.462l-.04-.308 3.232.022.053.212zm-10.839 5.945c.277 1.091.584 1.894.989 2.582l.213.362-.282-.106c-1.575-.592-2.999-1.824-3.855-3.337l-.139-.245 2.89.022.183.722zm5.951-.669c-.012.041-.081.304-.155.584-.403 1.537-1.088 2.718-1.787 3.083a.947.947 0 0 1-.84 0c-.705-.367-1.424-1.621-1.813-3.162-.06-.237-.118-.464-.13-.505-.02-.07.113-.074 2.362-.074s2.382.004 2.362.074zm4.261-.051c0 .054-.197.404-.393.699-.862 1.295-2.158 2.332-3.584 2.87l-.262.099.214-.364c.398-.676.746-1.581.992-2.582.08-.326.146-.627.146-.669 0-.072.081-.077 1.444-.077.794 0 1.444.01 1.444.023z"/>
    </symbol>
    <symbol id="icon-services-3" viewBox="0 0 32 32">
      <path fill="#24272e" style="fill:var(--color1, #24272e)" d="M16 0c8.837 0 16 7.163 16 16s-7.163 16-16 16S0 24.837 0 16 7.163 0 16 0z"/>
      <path fill="#f0e714" style="fill:var(--color2, #f0e714)" d="M10.41 8.468c-1.59.71-2.939 1.327-2.999 1.371s-.138.142-.174.218c-.06.126-.065.712-.065 7.199 0 6.465.005 7.073.065 7.198a.663.663 0 0 0 .502.358c.158.018.389-.077 2.944-1.213l2.772-1.232 2.455 1.227c1.877.938 2.489 1.227 2.599 1.227.104 0 .957-.361 3.044-1.287 1.595-.708 2.955-1.328 3.023-1.377.272-.2.252.4.252-7.424 0-6.465-.006-7.073-.065-7.198a.661.661 0 0 0-.502-.358c-.158-.018-.389.077-2.944 1.213l-2.772 1.232-2.455-1.227c-2.132-1.066-2.477-1.227-2.623-1.223-.129.004-.838.304-3.058 1.296zm2.437 6.555v6.24l-2.138.95a380.36 380.36 0 0 1-2.207.976c-.066.025-.069-.287-.069-6.218v-6.244l2.177-.97c1.198-.533 2.191-.971 2.207-.972s.03 2.806.03 6.238zm10.719 0v6.24l-2.138.95a380.36 380.36 0 0 1-2.207.976c-.066.025-.069-.287-.069-6.218v-6.244l2.177-.97c1.198-.533 2.191-.971 2.207-.972s.03 2.806.03 6.238zm-5.675 1.918v6.226l-3.783-1.892V8.822l3.783 1.892v6.226z"/>
    </symbol>
    <symbol id="icon-services-4" viewBox="0 0 32 32">
      <path fill="#24272e" style="fill:var(--color1, #24272e)" d="M16 0c8.837 0 16 7.163 16 16s-7.163 16-16 16S0 24.837 0 16 7.163 0 16 0z"/>
      <path fill="#f0e714" style="fill:var(--color2, #f0e714)" d="M13.368 7.237a3.382 3.382 0 0 0-.635.237c-1.265.624-1.839 2.229-1.255 3.505.059.129.108.242.108.251s-.444.016-.987.017c-1.154.001-1.402.04-1.939.305-.889.439-1.487 1.408-1.487 2.411 0 .621.271 1.335.682 1.796L8.07 16l-.218.244c-.944 1.055-.889 2.693.124 3.706.796.796 2.01 1.027 3.004.572.129-.059.242-.108.251-.108s.016.444.017.987c.001 1.154.04 1.402.305 1.939.439.889 1.408 1.487 2.411 1.487.628 0 1.333-.266 1.793-.678l.244-.218.244.218c1.055.944 2.693.889 3.706-.124.796-.796 1.027-2.01.572-3.004-.059-.129-.108-.242-.108-.251s.444-.016.987-.017c1.154-.001 1.41-.041 1.941-.302.884-.436 1.486-1.413 1.486-2.414 0-.621-.271-1.335-.682-1.796L23.932 16l.218-.244c.944-1.056.889-2.693-.124-3.706-.796-.796-2.01-1.027-3.004-.572-.129.059-.242.108-.251.108s-.016-.444-.017-.987c-.001-1.154-.04-1.402-.305-1.939a2.724 2.724 0 0 0-2.411-1.487c-.621 0-1.335.271-1.796.682l-.241.215-.244-.218c-.621-.555-1.549-.794-2.388-.614zm1.171 1.421c.264.128.524.388.657.657.098.199.105.259.118 1.074l.014.863-.863-.014c-.815-.013-.874-.02-1.074-.118a1.359 1.359 0 0 1-.552-1.983c.159-.241.446-.462.717-.55.259-.085.732-.051.984.071zm3.913-.06c.324.105.595.334.77.653l.152.276v4.797l-.145.267c-.161.297-.294.426-.614.594-.211.111-.241.114-1.076.129l-.86.015v-2.825c0-2.496.008-2.849.069-3.028.245-.721.994-1.107 1.704-.877zm-4.075 4.075c.324.105.595.334.77.653l.152.276.014.861.014.861-5.802-.024-.212-.105c-1.103-.546-1.01-2.114.149-2.52.164-.057.508-.067 2.446-.069 1.964-.002 2.283.007 2.468.067zm8.312.06c.264.128.524.389.657.657.149.303.149.841 0 1.144a1.54 1.54 0 0 1-.661.661c-.199.098-.259.105-1.071.118l-.86.014v-.782c0-.538.018-.842.058-.974a1.45 1.45 0 0 1 .893-.91c.259-.085.732-.051.984.071zm-11.451 4.806c-.013.812-.02.871-.118 1.071a1.545 1.545 0 0 1-.661.661c-.174.086-.275.104-.572.104s-.398-.018-.572-.104a1.359 1.359 0 0 1-.552-1.983 1.45 1.45 0 0 1 .717-.548c.114-.036.449-.055.973-.057l.799-.003-.014.86zm4.074 2.037-.012 2.897-.145.267c-.162.298-.295.427-.614.593-.185.096-.269.113-.578.112-.295 0-.4-.019-.573-.103a1.52 1.52 0 0 1-.659-.657l-.105-.212-.012-2.313c-.011-2.037-.004-2.338.057-2.523.139-.425.447-.739.868-.887.146-.051.376-.067.988-.069l.797-.002-.012 2.897zm7.215-2.828c.324.105.595.334.77.653.141.257.152.301.15.637-.001.306-.019.394-.114.578-.166.32-.295.453-.593.614l-.267.145h-4.797l-.212-.105a1.536 1.536 0 0 1-.659-.659c-.099-.201-.106-.258-.119-1.072l-.014-.86h2.821c2.481 0 2.847.008 3.033.069zm-3.918 4.131c.269.133.529.392.661.661.086.174.104.275.104.572 0 .425-.099.675-.381.956s-.531.381-.956.381c-.297 0-.398-.018-.572-.104a1.54 1.54 0 0 1-.661-.661c-.098-.199-.105-.259-.118-1.074l-.014-.863.863.014c.815.013.874.02 1.074.118z"/>
    </symbol>
    <symbol id="icon-services-5" viewBox="0 0 32 32">
      <path fill="#24272e" style="fill:var(--color1, #24272e)" d="M16 0c8.837 0 16 7.163 16 16s-7.163 16-16 16S0 24.837 0 16 7.163 0 16 0z"/>
      <path fill="#f0e714" style="fill:var(--color2, #f0e714)" d="M21.224 7.189c-.035.015-1.415.778-3.067 1.696l-3.004 1.669h-3.087c-2.635 0-3.123.01-3.336.065a2.07 2.07 0 0 0-1.487 1.492c-.095.364-.093 4.674.002 5.039a2.07 2.07 0 0 0 1.492 1.487c.155.041.443.063.797.063h.553l.966 2.9c1.025 3.077 1.014 3.051 1.317 3.165.191.072 3.049.061 3.225-.013a.73.73 0 0 0 .392-.471c.026-.139-.61-4.149-.708-4.465-.09-.292-.448-.481-.788-.417-.207.039-.463.293-.501.499-.02.106.058.673.251 1.831.154.922.28 1.688.28 1.7s-.32.023-.711.023h-.711L11.516 18.7h3.638l3.025 1.685c2.979 1.66 3.028 1.685 3.266 1.687.26.001.397-.069.563-.291.085-.113.088-.175.1-1.97l.012-1.853.369-.115c1.171-.366 2.041-1.362 2.282-2.614.315-1.635-.693-3.32-2.282-3.816l-.369-.115-.012-1.853c-.012-1.795-.015-1.857-.1-1.97-.145-.195-.296-.282-.514-.297a.861.861 0 0 0-.268.013zm-.467 7.433v5.638l-4.75-2.639-.012-2.299c-.011-2.247-.014-2.302-.099-2.417-.166-.223-.302-.292-.57-.292s-.404.069-.57.292c-.085.114-.088.171-.099 2.279l-.012 2.162-2.839-.011c-2.792-.011-2.84-.013-2.956-.099a1.205 1.205 0 0 1-.205-.205c-.086-.115-.087-.16-.087-2.402s.002-2.287.087-2.402c.048-.064.14-.157.205-.205.116-.086.16-.088 3.392-.1l3.274-.012 2.609-1.457c1.435-.802 2.614-1.46 2.62-1.462s.011 2.532.011 5.633zm1.622-1.793c.12.061.328.215.46.341a2.006 2.006 0 0 1 0 2.914c-.198.189-.607.452-.702.452-.012 0-.023-.859-.023-1.909s.01-1.909.023-1.909.121.05.242.111z"/>
    </symbol>
    <symbol id="icon-services-6" viewBox="0 0 32 32">
      <path fill="#24272e" style="fill:var(--color1, #24272e)" d="M16 0c8.837 0 16 7.163 16 16s-7.163 16-16 16S0 24.837 0 16 7.163 0 16 0z"/>
      <path fill="#f0e714" style="fill:var(--color2, #f0e714)" d="M19.222 6.682c-.411.179-.54.739-.25 1.084.202.24.303.259 1.381.259h.978l-3.926 3.926-1.24-1.236c-1.07-1.066-1.262-1.24-1.404-1.266a.717.717 0 0 0-.615.15c-.078.067-1.408 1.229-2.956 2.583-3.041 2.659-2.951 2.567-2.898 2.963.059.442.548.721.953.545.084-.036 1.316-1.086 2.738-2.331l2.586-2.265 1.253 1.249c1.082 1.078 1.275 1.253 1.418 1.279.407.074.3.163 2.784-2.316l2.29-2.287.013 1.036c.012.967.019 1.044.104 1.157.172.23.312.302.59.302s.418-.072.59-.302c.088-.118.091-.18.103-2.106l.012-1.985-.101-.15a1.136 1.136 0 0 0-.249-.25l-.148-.1-1.935.002c-1.509.001-1.964.014-2.069.06zm.702 7.019c-.177.078-.361.302-.393.478-.014.078-.02 2.415-.013 5.195.013 5.026.013 5.054.103 5.174.05.067.145.162.212.212.117.088.173.09 1.782.09s1.665-.003 1.782-.09a1.25 1.25 0 0 0 .212-.212c.09-.121.09-.138.09-5.292s0-5.171-.09-5.292a1.25 1.25 0 0 0-.212-.212c-.117-.087-.182-.091-1.73-.101-1.271-.008-1.637.002-1.743.049zm-5.616 1.404c-.177.078-.361.302-.393.478-.014.078-.02 2.099-.013 4.493.013 4.316.013 4.352.103 4.472.05.067.145.162.212.212.117.088.173.09 1.782.09s1.665-.003 1.782-.09a1.25 1.25 0 0 0 .212-.212c.09-.12.09-.145.09-4.59s0-4.469-.09-4.59a1.25 1.25 0 0 0-.212-.212c-.117-.087-.182-.091-1.73-.1-1.271-.008-1.637.002-1.743.049zm8.01 4.151v4.212h-1.404v-8.424h1.404v4.212zm-5.616.702v3.51h-1.404v-7.02h1.404v3.51zm-8.009-2.747c-.177.078-.361.302-.393.478-.014.078-.02 1.626-.013 3.44.013 3.253.014 3.3.103 3.419.05.067.145.162.212.212.117.088.173.09 1.782.09s1.665-.003 1.782-.09a1.25 1.25 0 0 0 .212-.212c.09-.12.09-.155.09-3.537s-.001-3.417-.09-3.537a1.25 1.25 0 0 0-.212-.212c-.117-.087-.182-.091-1.73-.101-1.271-.008-1.637.002-1.743.049zm2.393 3.8v2.457H9.682v-4.914h1.404v2.457z"/>
    </symbol>
    <symbol id="icon-services-7" viewBox="0 0 32 32">
      <path fill="#24272e" style="fill:var(--color1, #24272e)" d="M16 0c8.837 0 16 7.163 16 16s-7.163 16-16 16S0 24.837 0 16 7.163 0 16 0z"/>
      <path fill="#f0e714" style="fill:var(--color2, #f0e714)" d="M12.693 7.787c-.149.032-.436.14-.637.239-.891.44-1.489 1.408-1.489 2.412 0 1.523 1.314 2.782 2.824 2.707l.342-.017.567 1.267-.271.293c-.685.74-.922 1.815-.599 2.715.062.173.116.334.12.358s-.474.474-1.064 1l-1.071.956-.33-.163c-2.024-1-4.321.788-3.853 2.999a2.756 2.756 0 0 0 1.425 1.841c.819.404 1.642.405 2.458.003 1.178-.58 1.778-2.046 1.339-3.267-.062-.173-.116-.335-.12-.359s.476-.475 1.067-1.001l1.075-.957.327.163a2.655 2.655 0 0 0 1.764.226 3.12 3.12 0 0 0 .963-.406c.083-.059.144-.076.178-.051.441.336 1.806 1.395 1.848 1.433.046.042.039.1-.036.323-.054.16-.1.429-.113.654-.1 1.779 1.525 3.168 3.277 2.802 1.218-.255 2.142-1.399 2.142-2.653 0-1.001-.601-1.978-1.486-2.414-.862-.425-1.769-.397-2.605.082-.177.101-.311.153-.34.132a201.434 201.434 0 0 1-1.843-1.429c-.046-.042-.039-.099.035-.32.05-.148.102-.434.115-.636l.024-.366 1.1-.363.066.1c.036.055.194.225.351.379 1.046 1.024 2.735 1.005 3.779-.041a2.682 2.682 0 0 0 0-3.828 2.681 2.681 0 0 0-3.822.002c-.5.5-.802 1.203-.804 1.87l-.001.235-1.111.367-.066-.1a4.018 4.018 0 0 0-.356-.384 2.666 2.666 0 0 0-1.972-.747l-.342.017-.567-1.267.271-.293c1.011-1.092.985-2.729-.06-3.777a2.702 2.702 0 0 0-2.5-.737zm1.004 1.361c.324.105.595.334.77.653.141.256.152.302.151.637-.001.329-.013.384-.145.628-.161.298-.294.427-.614.593-.185.096-.269.113-.578.112-.295 0-.4-.019-.573-.103a1.384 1.384 0 0 1-.775-1.132c-.077-.948.854-1.681 1.763-1.388zm8.83 4.075c.324.105.595.334.77.653.141.256.152.302.151.637-.001.329-.013.384-.145.628-.161.298-.294.427-.614.592-.179.093-.275.112-.556.114-.643.004-1.106-.325-1.309-.929-.345-1.027.663-2.032 1.703-1.696zm-6.113 2.038c.342.111.603.337.774.672.135.264.148.324.146.635-.002.274-.022.382-.101.535-.165.319-.326.489-.606.64-.245.132-.297.144-.628.143-.434-.002-.685-.104-.962-.393a1.327 1.327 0 0 1-.386-.84c-.077-.948.855-1.683 1.763-1.39zm6.113 4.754c.324.105.595.334.77.653.141.256.152.302.151.637-.001.329-.013.384-.145.628-.161.298-.294.427-.614.593-.185.096-.269.113-.578.112-.295 0-.4-.019-.573-.103-.604-.293-.923-1.008-.723-1.62.24-.734.994-1.131 1.711-.899zm-12.069.741c.257.122.504.37.652.654.094.181.111.269.112.575.001.33-.011.383-.143.628-.161.298-.294.427-.614.593-.185.096-.269.113-.578.112-.295 0-.4-.019-.573-.103-1.103-.535-1.011-2.099.149-2.52.267-.097.72-.069.995.062z"/>
    </symbol>
    <symbol id="icon-services-8" viewBox="0 0 32 32">
      <path fill="#24272e" style="fill:var(--color1, #24272e)" d="M16 0c8.837 0 16 7.163 16 16s-7.163 16-16 16S0 24.837 0 16 7.163 0 16 0z"/>
      <path fill="#f0e714" style="fill:var(--color2, #f0e714)" d="M9.882 9.989a2.43 2.43 0 0 0-.432.159c-.265.134-.662.531-.795.794-.223.44-.22.391-.221 4.253l-.001 3.553-.427.013c-.392.012-.438.022-.566.119-.247.188-.268.282-.268 1.161.001.856.041 1.126.221 1.482.133.263.53.66.794.794.457.232.064.22 7.798.221 4.666 0 7.171-.013 7.311-.04a1.85 1.85 0 0 0 .959-.522c.475-.475.572-.802.573-1.935.001-.879-.021-.972-.268-1.161-.128-.098-.174-.107-.566-.119l-.427-.013-.001-3.553c-.001-3.847.001-3.814-.215-4.241a2.452 2.452 0 0 0-.32-.433 1.933 1.933 0 0 0-.997-.555c-.136-.025-2.323-.038-6.069-.036-4.854.003-5.896.013-6.083.058zm12.133 1.301c.06.045.145.13.19.19.081.108.081.143.092 3.692l.01 3.584H9.694v-3.525c0-2.401.013-3.56.042-3.636a.662.662 0 0 1 .332-.351c.097-.043 1.155-.051 5.978-.044 5.85.008 5.86.009 5.968.09zm-11.69 3.683v3.153h11.35V11.82H10.324v3.153zm10.089 0v1.892h-8.828v-3.784h8.828v1.892zm-6.921 5.169c.034.17.189.363.353.441.121.057.365.065 2.154.065s2.033-.007 2.154-.065a.696.696 0 0 0 .353-.441l.025-.125h5.042l-.013.431c-.014.465-.049.553-.285.729l-.109.081H8.833l-.109-.081c-.236-.176-.27-.264-.285-.729l-.013-.431h5.042l.025.125z"/>
    </symbol>
     <symbol id="icon-check" viewBox="0 0 40 32">
      <path d="M33.784 1.020c0.659-0.637 1.558-1.030 2.548-1.030 2.007 0 3.637 1.611 3.668 3.611l0 0.003c0.001 0.028 0.001 0.061 0.001 0.095 0 0.965-0.368 1.844-0.972 2.504l0.003-0.003-19.576 24.616c-0.674 0.728-1.635 1.182-2.702 1.182-0.495 0-0.967-0.098-1.398-0.275l0.024 0.009c-0.477-0.197-0.884-0.473-1.224-0.816l-0-0-12.984-13.052c-0.724-0.677-1.175-1.638-1.175-2.705 0-0.501 0.1-0.98 0.28-1.416l-0.009 0.025c0.564-1.367 1.887-2.312 3.43-2.312 0.018 0 0.035 0 0.053 0l-0.003-0c1.038 0.019 1.967 0.467 2.622 1.174l0.002 0.002 10.276 10.328 17.040-21.832c0.032-0.039 0.065-0.074 0.1-0.108l-0.004-0z"></path>
    </symbol>
    <symbol id="icon-close" viewBox="0 0 32 32">
<path d="M32 3.223l-3.223-3.223-12.777 12.777-12.777-12.777-3.223 3.223 12.777 12.777-12.777 12.777 3.223 3.223 12.777-12.777 12.777 12.777 3.223-3.223-12.777-12.777 12.777-12.777z"></path>
</symbol>

    <symbol id="icon-instagram" viewBox="0 0 32 32">
      <path d="M31.969 9.408c-.075-1.7-.35-2.869-.744-3.882a7.803 7.803 0 0 0-1.85-2.838A7.867 7.867 0 0 0 26.543.844C25.524.45 24.361.175 22.661.1 20.948.019 20.404 0 16.06 0s-4.888.019-6.595.094c-1.7.075-2.869.35-3.882.744a7.803 7.803 0 0 0-2.838 1.85A7.867 7.867 0 0 0 .901 5.52C.507 6.539.232 7.702.157 9.402c-.081 1.713-.1 2.257-.1 6.601s.019 4.888.094 6.595c.075 1.7.35 2.869.744 3.882a7.895 7.895 0 0 0 1.85 2.838 7.867 7.867 0 0 0 2.832 1.844c1.019.394 2.182.669 3.882.744 1.706.075 2.25.094 6.595.094s4.888-.018 6.595-.094c1.7-.075 2.869-.35 3.882-.744a8.181 8.181 0 0 0 4.682-4.682c.394-1.019.669-2.182.744-3.882.075-1.707.094-2.251.094-6.595s-.006-4.888-.081-6.595zm-2.882 13.065c-.069 1.563-.331 2.407-.55 2.969a5.307 5.307 0 0 1-3.038 3.038c-.563.219-1.413.481-2.969.55-1.688.075-2.194.094-6.464.094s-4.782-.018-6.464-.094c-1.563-.069-2.407-.331-2.969-.55a4.926 4.926 0 0 1-1.838-1.194 4.974 4.974 0 0 1-1.194-1.838c-.219-.563-.481-1.413-.55-2.969-.075-1.688-.094-2.194-.094-6.464s.019-4.782.094-6.464c.069-1.563.331-2.407.55-2.969a4.868 4.868 0 0 1 1.2-1.838A4.974 4.974 0 0 1 6.639 3.55c.563-.219 1.413-.481 2.969-.55 1.688-.075 2.194-.094 6.464-.094 4.276 0 4.782.019 6.464.094 1.563.069 2.407.331 2.969.55a4.914 4.914 0 0 1 1.838 1.194 4.974 4.974 0 0 1 1.194 1.838c.219.563.481 1.413.55 2.969.075 1.688.094 2.194.094 6.464s-.019 4.77-.094 6.457z"/>
      <path d="M16.059 7.782c-4.538 0-8.22 3.682-8.22 8.22s3.682 8.22 8.22 8.22 8.22-3.682 8.22-8.22-3.682-8.22-8.22-8.22zm0 13.553a5.333 5.333 0 0 1 0-10.664 5.333 5.333 0 0 1 0 10.664zM26.524 7.457a1.919 1.919 0 1 1-3.838 0 1.919 1.919 0 0 1 3.838 0z"/>
    </symbol>
    <symbol id="icon-twitter" viewBox="0 0 34 32">
      <path d="M29.867 4.862c-.952.418-1.966.694-3.024.829a5.221 5.221 0 0 0 2.309-2.901 10.466 10.466 0 0 1-3.328 1.27 5.246 5.246 0 0 0-9.079 3.589c0 .416.035.816.122 1.197-4.363-.213-8.224-2.304-10.818-5.49a5.283 5.283 0 0 0-.718 2.653c0 1.818.936 3.429 2.331 4.362a5.19 5.19 0 0 1-2.371-.646v.058a5.273 5.273 0 0 0 4.205 5.157 5.23 5.23 0 0 1-1.376.173 4.61 4.61 0 0 1-.994-.09c.68 2.078 2.61 3.606 4.904 3.656a10.545 10.545 0 0 1-6.507 2.238 9.8 9.8 0 0 1-1.256-.072 14.777 14.777 0 0 0 8.051 2.355c9.658 0 14.938-8 14.938-14.934a13.6 13.6 0 0 0-.019-.678 10.44 10.44 0 0 0 2.63-2.725z"/>
    </symbol>
    <symbol id="icon-facebook" viewBox="0 0 32 32">
      <path d="M21.329 5.313h2.921V.225C23.746.156 22.013 0 19.994 0c-4.212 0-7.097 2.649-7.097 7.519V12H8.249v5.688h4.648V32h5.699V17.689h4.46l.708-5.688h-5.169V8.082c.001-1.644.444-2.769 2.735-2.769z"/>
    </symbol>
    <symbol id="icon-linkedin" viewBox="0 0 32 32">
      <path d="M31.992 32v-.001H32V20.263c0-5.741-1.236-10.164-7.948-10.164-3.227 0-5.392 1.771-6.276 3.449h-.093v-2.913h-6.364v21.364h6.627V21.42c0-2.785.528-5.479 3.977-5.479 3.399 0 3.449 3.179 3.449 5.657v10.401h6.62zM.528 10.636h6.635V32H.528V10.636zM3.843 0C1.722 0 0 1.721 0 3.843s1.721 3.879 3.843 3.879c2.121 0 3.843-1.757 3.843-3.879A3.846 3.846 0 0 0 3.843 0z"/>
    </symbol>

    <symbol id="icon-email" viewBox="0 0 32 32">
<path d="M26.664 5.333h-21.333c-1.467 0-2.653 1.2-2.653 2.667l-0.013 16c0 1.467 1.2 2.667 2.667 2.667h21.333c1.467 0 2.667-1.2 2.667-2.667v-16c0-1.467-1.2-2.667-2.667-2.667zM26.664 10.666l-10.667 6.667-10.667-6.667v-2.667l10.667 6.667 10.667-6.667v2.667z"></path>
</symbol>
<symbol id="icon-location" viewBox="0 0 32 32">
<path d="M15.997 28c-1.684-1.437-3.245-3.011-4.667-4.708-2.133-2.548-4.667-6.343-4.667-9.959-0.001-1.847 0.546-3.652 1.572-5.188s2.484-2.733 4.19-3.439c1.706-0.707 3.584-0.891 5.395-0.531s3.475 1.251 4.78 2.557c0.869 0.865 1.558 1.894 2.027 3.027s0.708 2.348 0.704 3.574c0 3.616-2.533 7.411-4.667 9.959-1.422 1.697-2.983 3.271-4.667 4.708zM15.997 9.333c-1.061 0-2.078 0.421-2.828 1.172s-1.172 1.768-1.172 2.828c0 1.061 0.421 2.078 1.172 2.828s1.768 1.172 2.828 1.172c1.061 0 2.078-0.421 2.828-1.172s1.172-1.768 1.172-2.828c0-1.061-0.421-2.078-1.172-2.828s-1.768-1.172-2.828-1.172z"></path>
</symbol>
<symbol id="icon-phone" viewBox="0 0 25 32">
<path d="M3.657 0.915l2.53-0.763c0.835-0.251 1.733-0.19 2.526 0.172s1.428 1 1.785 1.795l1.774 3.944c0.308 0.684 0.394 1.448 0.245 2.183s-0.523 1.406-1.072 1.918l-2.7 2.516c-0.362 0.344-0.088 1.682 1.234 3.973 1.323 2.292 2.346 3.199 2.817 3.058l3.537-1.081c0.717-0.219 1.485-0.209 2.195 0.030s1.329 0.694 1.768 1.302l2.521 3.494c0.509 0.706 0.745 1.572 0.664 2.438s-0.474 1.674-1.106 2.272l-1.949 1.846c-0.629 0.596-1.405 1.014-2.248 1.212s-1.724 0.169-2.553-0.085c-4.083-1.25-7.864-4.959-11.395-11.076-3.538-6.126-4.874-11.293-3.943-15.514 0.188-0.851 0.599-1.636 1.191-2.274s1.344-1.108 2.178-1.359v0z"></path>
</symbol>
  </defs>
</svg>
