<svg aria-hidden="true" style="position:absolute;width:0;height:0;overflow:hidden" xmlns="http://www.w3.org/2000/svg">
  <defs>
    <symbol id="icon-arrow" viewBox="0 0 44 32">
      <path d="M0 16c0-.429.164-.84.456-1.143s.689-.473 1.102-.473h36.755L28.505 4.217c-.293-.303-.457-.715-.457-1.144s.164-.841.457-1.144c.293-.303.69-.474 1.103-.474s.811.17 1.103.474l12.467 12.927a1.662 1.662 0 0 1 0 2.288L30.711 30.071c-.293.303-.689.474-1.103.474s-.811-.17-1.103-.474-.457-.715-.457-1.144c0-.429.164-.841.457-1.144l9.808-10.167H1.558c-.413 0-.81-.17-1.102-.473S0 16.429 0 16z"/>
    </symbol>
    <symbol id="icon-dot" viewBox="0 0 32 32">
      <path fill="#edb32d" style="fill:var(--color1, #edb32d)" d="M32 16c0 8.837-7.163 16-16 16S0 24.837 0 16 7.163 0 16 0s16 7.163 16 16z"/>
    </symbol>
    <symbol id="icon-star" viewBox="0 0 32 32">
      <path fill="#f0e714" style="fill:var(--color2, #f0e714)" d="M14.941.98c.364-.983 1.755-.983 2.118 0l3.59 9.703c.114.309.358.553.667.667l9.703 3.59c.983.364.983 1.755 0 2.118l-9.703 3.59a1.127 1.127 0 0 0-.667.667l-3.59 9.703c-.364.983-1.755.983-2.118 0l-3.59-9.703a1.127 1.127 0 0 0-.667-.667l-9.703-3.59c-.983-.364-.983-1.755 0-2.118l9.703-3.59c.309-.114.553-.358.667-.667L14.941.98z"/>
    </symbol>
    <symbol id="icon-play" viewBox="0 0 32 32">
      <path fill="#fff" style="fill:var(--color3, #fff)" d="M16 0c8.837 0 16 7.163 16 16s-7.163 16-16 16S0 24.837 0 16 7.163 0 16 0z"/>
      <path fill="#2b303b" style="fill:var(--color4, #2b303b)" d="M21.067 14.614a1.6 1.6 0 0 1 0 2.771l-6.4 3.695a1.6 1.6 0 0 1-2.4-1.386v-7.39a1.6 1.6 0 0 1 2.4-1.386l6.4 3.695z"/>
    </symbol>
  </defs>
</svg>
