<svg aria-hidden="true" style="position:absolute;width:0;height:0;overflow:hidden" xmlns="http://www.w3.org/2000/svg">
  <defs>
    <symbol id="icon-arrow" viewBox="0 0 44 32">
      <path d="M0 16c0-.429.164-.84.456-1.143s.689-.473 1.102-.473h36.755L28.505 4.217c-.293-.303-.457-.715-.457-1.144s.164-.841.457-1.144c.293-.303.69-.474 1.103-.474s.811.17 1.103.474l12.467 12.927a1.662 1.662 0 0 1 0 2.288L30.711 30.071c-.293.303-.689.474-1.103.474s-.811-.17-1.103-.474-.457-.715-.457-1.144c0-.429.164-.841.457-1.144l9.808-10.167H1.558c-.413 0-.81-.17-1.102-.473S0 16.429 0 16z"/>
    </symbol>
    <symbol id="icon-dot" viewBox="0 0 32 32">
      <path fill="#edb32d" style="fill:var(--color1, #edb32d)" d="M32 16c0 8.837-7.163 16-16 16S0 24.837 0 16 7.163 0 16 0s16 7.163 16 16z"/>
    </symbol>
    <symbol id="icon-star" viewBox="0 0 32 32">
      <path fill="#f0e714" style="fill:var(--color2, #f0e714)" d="M14.941.98c.364-.983 1.755-.983 2.118 0l3.59 9.703c.114.309.358.553.667.667l9.703 3.59c.983.364.983 1.755 0 2.118l-9.703 3.59a1.127 1.127 0 0 0-.667.667l-3.59 9.703c-.364.983-1.755.983-2.118 0l-3.59-9.703a1.127 1.127 0 0 0-.667-.667l-9.703-3.59c-.983-.364-.983-1.755 0-2.118l9.703-3.59c.309-.114.553-.358.667-.667L14.941.98z"/>
    </symbol>
    <symbol id="icon-play" viewBox="0 0 32 32">
      <path fill="#fff" style="fill:var(--color3, #fff)" d="M16 0c8.837 0 16 7.163 16 16s-7.163 16-16 16S0 24.837 0 16 7.163 0 16 0z"/>
      <path fill="#2b303b" style="fill:var(--color4, #2b303b)" d="M21.067 14.614a1.6 1.6 0 0 1 0 2.771l-6.4 3.695a1.6 1.6 0 0 1-2.4-1.386v-7.39a1.6 1.6 0 0 1 2.4-1.386l6.4 3.695z"/>
    </symbol>
    <symbol id="icon-choose-1" viewBox="0 0 32 32">
<path d="M11.5 11.333h-6c-0.354 0-0.693-0.14-0.943-0.391s-0.391-0.589-0.391-0.943v-6c0-0.354 0.14-0.693 0.391-0.943s0.589-0.391 0.943-0.391c0.354 0 0.693 0.14 0.943 0.391s0.391 0.589 0.391 0.943v4.667h4.667c0.354 0 0.693 0.14 0.943 0.391s0.391 0.589 0.391 0.943c0 0.354-0.14 0.693-0.391 0.943s-0.589 0.391-0.943 0.391z"></path>
<path d="M28 17.333c-0.354 0-0.693-0.14-0.943-0.39s-0.39-0.589-0.39-0.943c0.001-2.347-0.773-4.629-2.201-6.492s-3.432-3.202-5.699-3.809c-2.267-0.608-4.672-0.45-6.84 0.448s-3.98 2.488-5.153 4.521c-0.177 0.306-0.469 0.529-0.81 0.62s-0.706 0.043-1.012-0.134c-0.306-0.177-0.529-0.469-0.62-0.81s-0.043-0.706 0.134-1.012c1.467-2.541 3.732-4.527 6.442-5.649s5.716-1.319 8.55-0.559 5.338 2.434 7.123 4.762c1.786 2.328 2.753 5.181 2.752 8.115 0 0.354-0.14 0.693-0.39 0.943s-0.589 0.39-0.943 0.39zM26.5 29.333c-0.354 0-0.693-0.14-0.943-0.39s-0.39-0.589-0.39-0.943v-4.667h-4.667c-0.354 0-0.693-0.14-0.943-0.39s-0.39-0.589-0.39-0.943 0.14-0.693 0.39-0.943c0.25-0.25 0.589-0.391 0.943-0.391h6c0.354 0 0.693 0.14 0.943 0.391s0.39 0.589 0.39 0.943v6c0 0.354-0.14 0.693-0.39 0.943s-0.589 0.39-0.943 0.39z"></path>
<path d="M16 29.333c-3.535-0.004-6.924-1.41-9.423-3.91s-3.906-5.889-3.91-9.424c0-0.354 0.14-0.693 0.391-0.943s0.589-0.39 0.943-0.39 0.693 0.14 0.943 0.39c0.25 0.25 0.391 0.589 0.391 0.943-0.001 2.347 0.773 4.629 2.201 6.492s3.432 3.202 5.699 3.809c2.267 0.608 4.672 0.45 6.84-0.448s3.98-2.488 5.153-4.521c0.088-0.151 0.204-0.284 0.343-0.391s0.298-0.184 0.467-0.23c0.169-0.045 0.346-0.056 0.519-0.034s0.341 0.080 0.492 0.168c0.151 0.088 0.284 0.204 0.391 0.343s0.184 0.298 0.23 0.467c0.045 0.169 0.056 0.346 0.034 0.519s-0.080 0.341-0.168 0.492c-1.173 2.022-2.855 3.701-4.878 4.871s-4.319 1.788-6.656 1.794z"></path>
</symbol>
<symbol id="icon-choose-2" viewBox="0 0 32 32">
<path d="M25.756 21.872c-0.782-0.783-1.696-1.422-2.7-1.887 1.416-1.147 2.319-2.897 2.319-4.859 0-3.463-2.887-6.303-6.35-6.25-3.409 0.053-6.156 2.831-6.156 6.25 0 1.962 0.906 3.712 2.319 4.859-1.004 0.465-1.918 1.104-2.7 1.887-1.706 1.709-2.675 3.966-2.737 6.372-0.001 0.033 0.005 0.067 0.017 0.098s0.030 0.059 0.054 0.083 0.051 0.043 0.082 0.056c0.031 0.013 0.064 0.020 0.097 0.020h1.75c0.134 0 0.247-0.106 0.25-0.241 0.059-1.813 0.794-3.509 2.084-4.797 0.66-0.664 1.446-1.19 2.311-1.549s1.793-0.541 2.729-0.539c1.903 0 3.694 0.741 5.041 2.087 1.288 1.288 2.022 2.984 2.084 4.797 0.003 0.134 0.116 0.241 0.25 0.241h1.75c0.033 0 0.066-0.007 0.097-0.020s0.058-0.032 0.082-0.056 0.042-0.052 0.054-0.083c0.012-0.031 0.018-0.064 0.017-0.098-0.063-2.406-1.031-4.662-2.744-6.372zM19.125 19.125c-1.069 0-2.075-0.416-2.828-1.172-0.378-0.375-0.677-0.822-0.878-1.315s-0.301-1.021-0.294-1.554c0.009-1.025 0.419-2.016 1.134-2.75 0.75-0.769 1.753-1.197 2.825-1.209 1.059-0.009 2.087 0.403 2.844 1.144 0.775 0.759 1.2 1.775 1.2 2.856 0 1.069-0.416 2.072-1.172 2.828-0.371 0.373-0.812 0.668-1.298 0.869s-1.007 0.304-1.533 0.302zM11.297 15.95c-0.028-0.272-0.044-0.547-0.044-0.825 0-0.497 0.047-0.981 0.134-1.453 0.022-0.113-0.037-0.228-0.141-0.275-0.425-0.191-0.816-0.453-1.153-0.784-0.398-0.386-0.711-0.85-0.919-1.363s-0.307-1.064-0.291-1.618c0.028-1.003 0.431-1.956 1.134-2.675 0.772-0.791 1.809-1.222 2.912-1.209 0.997 0.009 1.959 0.394 2.688 1.075 0.247 0.231 0.459 0.487 0.637 0.763 0.063 0.097 0.184 0.138 0.291 0.1 0.55-0.191 1.131-0.325 1.728-0.388 0.175-0.019 0.275-0.206 0.197-0.362-1.016-2.009-3.091-3.397-5.491-3.434-3.466-0.053-6.353 2.788-6.353 6.247 0 1.963 0.903 3.713 2.319 4.859-0.994 0.459-1.909 1.094-2.703 1.887-1.713 1.709-2.681 3.966-2.744 6.375-0.001 0.033 0.005 0.067 0.017 0.098s0.030 0.059 0.054 0.083 0.051 0.043 0.082 0.056c0.031 0.013 0.064 0.020 0.097 0.020h1.753c0.134 0 0.247-0.106 0.25-0.241 0.059-1.813 0.794-3.509 2.084-4.797 0.919-0.919 2.044-1.556 3.272-1.866 0.122-0.031 0.203-0.147 0.188-0.272z"></path>
</symbol>
<symbol id="icon-choose-3" viewBox="0 0 32 32">
<path d="M16 2.667c-7.352 0-13.333 5.981-13.333 13.333v5.524c0 1.365 1.196 2.476 2.667 2.476h1.333c0.354 0 0.693-0.14 0.943-0.39s0.391-0.589 0.391-0.943v-6.857c0-0.354-0.14-0.693-0.391-0.943s-0.589-0.391-0.943-0.391h-1.211c0.741-5.16 5.181-9.143 10.544-9.143s9.803 3.983 10.544 9.143h-1.211c-0.354 0-0.693 0.14-0.943 0.391s-0.39 0.589-0.39 0.943v8.191c0 1.471-1.196 2.667-2.667 2.667h-2.667v-1.333h-5.333v4h8c2.941 0 5.333-2.392 5.333-5.333 1.471 0 2.667-1.111 2.667-2.476v-5.524c0-7.352-5.981-13.333-13.333-13.333z"></path>
</symbol>
  </defs>
</svg>
